<?xml version="1.0"?>
<svg xmlns="http://www.w3.org/2000/svg" id="Layer_1" data-name="Layer 1" viewBox="0 0 512 512" width="512" height="512"><title> Dollar Exchange</title><polygon points="442.23 200.86 496 282.85 388.46 282.85 442.23 200.86" style="fill:#f8ec7d"/><circle cx="256" cy="256" r="110" style="fill:#e48e66"/><polygon points="123.54 229.15 69.77 311.14 16 229.15 123.54 229.15" style="fill:#f8ec7d"/><path d="M447.247,197.569a6,6,0,0,0-10.034,0l-53.77,81.991a6,6,0,0,0,5.017,9.29h45.873a188.816,188.816,0,0,1-64.317,117.636C336.832,434.94,295.147,451.26,255.65,451.26c-25.759,0-52.693-6.946-77.89-20.085a193.652,193.652,0,0,1-66.35-56.911,6,6,0,0,0-9.681,7.092,205.717,205.717,0,0,0,70.483,60.459c26.9,14.029,55.754,21.445,83.438,21.445,42.319,0,86.851-17.373,122.177-47.664A200.779,200.779,0,0,0,446.433,288.85H496a6,6,0,0,0,5.017-9.29ZM399.57,276.85,442.23,211.8l42.66,65.049Z" style="fill:#63316d"/><path d="M69.77,317.14a6,6,0,0,0,5.017-2.709l53.77-81.991a6,6,0,0,0-5.017-9.29H77.667a188.816,188.816,0,0,1,64.317-117.636C175.168,77.06,216.853,60.74,256.35,60.74c25.759,0,52.693,6.946,77.89,20.085a193.652,193.652,0,0,1,66.35,56.911,6,6,0,0,0,9.681-7.092,205.717,205.717,0,0,0-70.483-60.459c-26.9-14.029-55.754-21.445-83.438-21.445-42.319,0-86.851,17.373-122.177,47.664A200.779,200.779,0,0,0,65.567,223.15H16a6,6,0,0,0-5.017,9.29l53.77,81.991A6,6,0,0,0,69.77,317.14Zm42.66-81.99L69.77,300.2,27.11,235.15Z" style="fill:#63316d"/><path d="M140,256A116,116,0,1,0,256,140,116.132,116.132,0,0,0,140,256Zm220,0A104,104,0,1,1,256,152,104.118,104.118,0,0,1,360,256Z" style="fill:#63316d"/><path d="M250,191.7v8.318a31,31,0,0,0,6,61.412,19,19,0,0,1,.1,38c-.035,0-.068,0-.1,0s-.067,0-.1,0a19.018,19.018,0,0,1-18.9-19,6,6,0,0,0-12,0,31.049,31.049,0,0,0,25,30.412V320.3a6,6,0,0,0,12,0v-9.458a31,31,0,0,0-6-61.412,19,19,0,1,1,19-19,6,6,0,0,0,12,0,31.05,31.05,0,0,0-25-30.412V191.7a6,6,0,0,0-12,0Z" style="fill:#63316d"/></svg>
